<svg id="visual" viewBox="0 0 1920 550" width="1920" height="550" xmlns="http://www.w3.org/2000/svg" xmlns:xlink="http://www.w3.org/1999/xlink" version="1.1"><path d="M0 375L80 363.2C160 351.3 320 327.7 480 323.8C640 320 800 336 960 346.3C1120 356.7 1280 361.3 1440 357C1600 352.7 1760 339.3 1840 332.7L1920 326L1920 551L1840 551C1760 551 1600 551 1440 551C1280 551 1120 551 960 551C800 551 640 551 480 551C320 551 160 551 80 551L0 551Z" fill="#31302c" stroke-linecap="round" stroke-linejoin="miter"></path></svg>